<?xml version="1.0" encoding="utf-8"?>
<svg xmlns="http://www.w3.org/2000/svg" id="Outline" viewBox="0 0 24 24" width="512" height="512">
  <path d="M 22.216 9.312 L 15.258 2.353 C 13.465 0.565 10.563 0.565 8.77 2.353 L 1.812 9.312 C 1.294 9.827 1.004 10.528 1.006 11.259 L 1.006 20.264 C 1.006 21.784 2.238 23.015 3.758 23.015 L 20.27 23.015 C 21.79 23.015 23.022 21.784 23.022 20.264 L 23.022 11.259 C 23.024 10.528 22.734 9.827 22.216 9.312 Z M 14.766 21.181 L 9.262 21.181 L 9.262 17.572 C 9.262 15.453 11.555 14.13 13.39 15.189 C 14.241 15.68 14.766 16.589 14.766 17.572 L 14.766 21.181 Z M 21.188 20.264 C 21.188 20.77 20.777 21.181 20.27 21.181 L 16.6 21.181 L 16.6 17.572 C 16.6 14.041 12.778 11.835 9.721 13.6 C 8.302 14.419 7.427 15.934 7.427 17.572 L 7.427 21.181 L 3.758 21.181 C 3.251 21.181 2.841 20.77 2.841 20.264 L 2.841 11.259 C 2.841 11.015 2.938 10.782 3.11 10.609 L 10.068 3.653 C 11.144 2.582 12.884 2.582 13.961 3.653 L 20.919 10.612 C 21.089 10.784 21.186 11.016 21.188 11.259 L 21.188 20.264 Z" style="fill: rgb(76, 175, 80);"/>
</svg>